<svg width="24" height="24" viewBox="0 0 24 24" fill="none" xmlns="http://www.w3.org/2000/svg">
<g id="ic_favorite_border_48px" clip-path="url(#clip0_172_275)">
<path id="Vector" d="M16.5 3C14.76 3 13.09 3.81 12 5.085C10.91 3.81 9.24 3 7.5 3C4.415 3 2 5.415 2 8.5C2 12.275 5.4 15.36 10.55 20.035L12 21.35L13.45 20.035C18.6 15.36 22 12.275 22 8.5C22 5.415 19.585 3 16.5 3ZM12.105 18.555L12 18.65L11.895 18.555C7.14 14.24 4 11.39 4 8.5C4 6.505 5.505 5 7.5 5C9.04 5 10.54 5.995 11.065 7.36H12.93C13.46 5.995 14.96 5 16.5 5C18.495 5 20 6.505 20 8.5C20 11.39 16.86 14.24 12.105 18.555Z" fill="#82878D"/>
</g>
<defs>
<clipPath id="clip0_172_275">
<rect width="24" height="24" fill="white"/>
</clipPath>
</defs>
</svg>
